# AST/ASF file generated using VICON BodyLanguage
# -----------------------------------------------
:version 1.10
:name VICON
:units
  mass 1.0
  length 0.45
  angle deg
:documentation
   .ast/.asf automatically generated from VICON data using
   VICON BodyBuilder and BodyLanguage model FoxedUp or BRILLIANT.MOD
:root
   order TX TY TZ RX RY RZ
   axis XYZ
   position 0 0 0  
   orientation 0 0 0 
:bonedata
  begin
     id 1 
     name lhipjoint
     direction 0.62366 -0.717238 0.310833 
     length 2.53602 
     axis 0 0 0  XYZ
  end
  begin
     id 2 
     name lfemur
     direction 0.34202 -0.939693 0  
     length 7.40817  
     axis 0 0 20  XYZ
    dof rx ry rz
    limits (-160.0 20.0)
           (-70.0 70.0)
           (-60.0 70.0)
  end
  begin
     id 3 
     name ltibia
     direction 0.34202 -0.939693 0   
     length 7.7045   
     axis 0 0 20   XYZ
    dof rx
    limits (-10.0 170.0)
  end
  begin
     id 4 
     name lfoot
     direction 0.0673888 -0.185149 0.980397   
     length 2.09456   
     axis -90 7.62852e-016 20   XYZ
    dof rx rz
    limits (-45.0 90.0)
           (-70.0 20.0)
  end
  begin
     id 5 
     name ltoes
     direction 1.53575e-011 -4.21994e-011 1   
     length 1.05543   
     axis -90 7.62852e-016 20   XYZ
    dof rx
    limits (-90.0 20.0)
  end
  begin
     id 6 
     name rhipjoint
     direction -0.489018 -0.800347 0.346851   
     length 2.27268  
     axis 0 0 0  XYZ 
  end
  begin
     id 7 
     name rfemur
     direction -0.34202 -0.939693 0   
     length 7.55487   
     axis 0 0 -20   XYZ
    dof rx ry rz
    limits (-160.0 20.0)
           (-70.0 70.0)
           (-70.0 60.0)
  end
  begin
     id 8 
     name rtibia
     direction -0.34202 -0.939693 0   
     length 7.78969   
     axis 0 0 -20   XYZ
    dof rx
    limits (-10.0 170.0)
 end
 begin
     id 9 
     name rfoot
     direction -0.0859318 -0.236096 0.967923   
     length 2.19143  
     axis -90 -7.62852e-016 -20   XYZ
    dof rx rz
    limits (-45.0 90.0)
           (-20.0 70.0)
  end
  begin
     id 10 
     name rtoes
     direction -1.53538e-011 -4.21989e-011 1   
     length 1.09845   
     axis -90 -7.62852e-016 -20   XYZ
    dof rx
    limits (-90.0 20.0)
  end
  begin
     id 11 
     name lowerback
     direction -0.00762546 0.998978 -0.0445553   
     length 1.98161   
     axis 0 0 0   XYZ
    dof rx ry rz
    limits (-20.0 45.0)
           (-30.0 30.0)
           (-30.0 30.0)
  end
  begin
     id 12 
     name upperback
     direction 0.0422361 0.998867 -0.0219156   
     length 1.97558   
     axis 0 0 0   XYZ
    dof rx ry rz
    limits (-20.0 45.0)
           (-30.0 30.0)
           (-30.0 30.0)
  end
  begin
     id 13 
     name thorax
     direction 0.0442465 0.999021 7.47603e-005   
     length 1.97799   
     axis 0 0 0   XYZ
    dof rx ry rz
    limits (-20.0 45.0)
           (-30.0 30.0)
           (-30.0 30.0)
  end
  begin
     id 14 
     name lowerneck
     direction 0.00312169 0.984641 0.174564   
     length 1.78995   
     axis 0 0 0   XYZ
    dof rx ry rz
    limits (-20.0 45.0)
           (-30.0 30.0)
           (-30.0 30.0)
  end
  begin
     id 15 
     name upperneck
     direction -0.0383028 0.985255 -0.166749   
     length 1.83053   
     axis 0 0 0   XYZ
    dof rx ry rz
    limits (-20.0 45.0)
           (-30.0 30.0)
           (-30.0 30.0)
  end
  begin
     id 16
     name head
     direction -0.0129546 0.997059 -0.0755386  
     length 1.84088  
     axis 0 0 0   XYZ
    dof rx ry rz
    limits (-20.0 45.0)
           (-30.0 30.0)
           (-30.0 30.0)
  end
  begin
     id 17 
     name lclavicle
     direction 0.912857 0.370519 -0.171488  
     length 3.51279  
     axis 0 0 0   XYZ
    dof ry rz
    limits (-20.0 10.0)
           (0.0 20.0)
  end
  begin
     id 18 
     name lhumerus
     direction 1 -4.48962e-011 3.64361e-027   
     length 4.95663   
     axis 180 -30 -90   XYZ
    dof rx ry rz
    limits (-60.0 90.0)
           (-90.0 90.0)
           (-90.0 90.0)
  end
  begin
     id 19
     name lradius
     direction 1 -4.48974e-011 5.97202e-027   
     length 3.38177   
     axis 180 -30 -90   XYZ
    dof rx
    limits (-10.0 170.0)
  end
  begin
     id 20
     name lwrist
     direction 1 -4.4896e-011 9.83288e-027   
     length 1.69088   
     axis -9.31221e-015 90 90   XYZ
    dof ry
    limits (-180.0 0.0)
 end
  begin
     id 21 
     name lhand
     direction 1 -4.4902e-011 1.96551e-026   
     length 0.662909   
     axis -1.25475e-014 90 90   XYZ
    dof rx rz
    limits (-90.0 90.0)
           (-45.0 45.0)
  end
  begin
     id 22 
     name lfingers
     direction 1 -4.48971e-011 3.93277e-026   
     length 0.534454   
     axis -2.50945e-014 90 90   XYZ
    dof rx
    limits (0.0 90.0)
  end
  begin
     id 23
     name lthumb
     direction 0.707107 -6.34933e-011 0.707107   
     length 0.767373   
     axis -90 45 -4.80359e-014   XYZ
    dof rx rz
    limits (-45.0 45.0)
           (-45.0 45.0)
  end
  begin
     id 24 
     name rclavicle
     direction -0.900919 0.395364 -0.178976   
     length 3.40627  
     axis 0 0 0   XYZ 
    dof ry rz
    limits (-10.0 20.0)
           (-20.0 0.0)
  end
  begin
     id 25 
     name rhumerus
     direction -1 -4.48969e-011 1.03875e-027  
     length 5.08365   
     axis 180 30 90   XYZ
    dof rx ry rz
    limits (-90.0 60.0)
           (-90.0 90.0)
           (-90.0 90.0)
  end
  begin
     id 26 
     name rradius
     direction -1 -4.48951e-011 5.02733e-027   
     length 3.35984   
     axis 180 30 90   XYZ
    dof rx
    limits (-10.0 170.0)
  end
  begin
     id 27 
     name rwrist
     direction -1 -4.49011e-011 9.82828e-027   
     length 1.67992   
     axis -9.31221e-015 -90 -90   XYZ
    dof ry
    limits (-180.0 0.0)
  end
  begin
     id 28
     name rhand
     direction -1 -4.48894e-011 1.96774e-026   
     length 0.820764   
     axis -1.25475e-014 -90 -90   XYZ
    dof rx rz
    limits (-90.0 90.0)
           (-45.0 45.0)
  end
  begin
     id 29
     name rfingers
     direction -1 -4.49095e-011 3.92833e-026   
     length 0.661721   
     axis -2.50945e-014 -90 -90   XYZ
    dof rx
    limits (0.0 90.0)
  end
  begin
     id 30
     name rthumb
     direction -0.707107 -6.34881e-011 0.707107   
     length 0.950103   
     axis -90 -45 4.80359e-014   XYZ
    dof rx rz
    limits (-45.0 45.0)
           (-45.0 45.0)
  end
:hierarchy
  begin
    root lhipjoint rhipjoint lowerback
    lhipjoint lfemur
    lfemur ltibia
    ltibia lfoot
    lfoot ltoes
    rhipjoint rfemur
    rfemur rtibia
    rtibia rfoot
    rfoot rtoes
    lowerback upperback
    upperback thorax
    thorax lowerneck lclavicle rclavicle
    lowerneck upperneck
    upperneck head
    lclavicle lhumerus
    lhumerus lradius
    lradius lwrist
    lwrist lhand lthumb
    lhand lfingers
    rclavicle rhumerus
    rhumerus rradius
    rradius rwrist
    rwrist rhand rthumb
    rhand rfingers
  end

#!OML:ASF I:\golf\golf\golf 2\Subject 1\2002-09-07\Subject1.ASF
:FULLY-SPECIFIED
:DEGREES
124
root -6.66235 17.8666 0.175457 -122.238 84.8468 -138.957
lowerback 2.50695 1.7123 -1.34279
upperback 4.2369 2.34113 4.90197
thorax 2.7098 1.12145 5.83858
lowerneck -14.3421 -3.29144 1.08651
upperneck 41.329 -1.78106 -3.09179
head 17.6037 -0.304671 -1.7382
rclavicle -8.34896e-015 -1.35174e-014
rhumerus -6.6481 0.173485 -99.5075
rradius 22.9515
rwrist -41.0061
rhand -13.4154 -6.65262
rfingers 7.12502
rthumb 12.6928 -36.2469
lclavicle -8.34896e-015 -1.35174e-014
lhumerus -14.2501 -54.04 113.187
lradius 32.0252
lwrist 45.4898
lhand -6.98028 72.0845
lfingers 7.12502
lthumb -161.11 78.8127
rfemur -25.9567 -1.73768 11.1522
rtibia 24.6665
rfoot -7.93269 -14.212
rtoes -5.20701
lfemur -28.1411 4.16501 -6.57804
ltibia 25.3328
lfoot -8.94089 0.983968
ltoes -23.6757
125
root -6.66225 17.8662 0.175921 -122.09 84.8154 -138.816
lowerback 2.49548 1.67797 -1.35996
upperback 4.23373 2.29552 4.94086
thorax 2.71613 1.09783 5.89037
lowerneck -14.2643 -3.24566 1.073
upperneck 41.2857 -1.69777 -3.11498
head 17.5614 -0.277668 -1.72873
rclavicle -1.19271e-014 -8.34896e-014
rhumerus -6.60486 0.251366 -99.5424
rradius 22.8372
rwrist -40.8678
rhand -13.457 -6.46399
rfingers 7.12502
rthumb 12.6527 -36.0607
lclavicle -1.19271e-014 -8.34896e-014
lhumerus -14.3684 -54.0615 113.288
lradius 32.1518
lwrist 45.4846
lhand -7.72769 72.4679
lfingers 7.12502
lthumb -161.829 78.3609
rfemur -25.9595 -1.64588 11.1777
rtibia 24.6598
rfoot -7.84858 -14.3304
rtoes -5.67481
lfemur -28.1614 4.23027 -6.56342
ltibia 25.3373
lfoot -8.92795 0.959426
ltoes -23.614
126
root -6.66223 17.8662 0.17772 -121.807 84.8552 -138.518
lowerback 2.56312 1.68123 -1.54836
upperback 4.21241 2.30059 5.03895
thorax 2.6457 1.09615 6.09872
lowerneck -14.23 -3.24151 0.996373
upperneck 41.2831 -1.63199 -3.18732
head 17.5541 -0.272102 -1.73527
rclavicle -1.55052e-014 -5.56597e-015
rhumerus -6.76428 1.181 -99.4221
rradius 23.0847
rwrist -41.6486
rhand -13.728 -6.42
rfingers 7.12502
rthumb 12.3913 -36.0327
lclavicle -1.55052e-014 -5.56597e-015
lhumerus -14.3766 -53.6417 113.48
lradius 31.9604
lwrist 44.7402
lhand -7.81633 72.4278
lfingers 7.12502
lthumb -161.914 78.3931
rfemur -25.9364 -1.47139 11.1347
rtibia 24.6407
rfoot -7.83364 -14.4516
rtoes -5.6468
lfemur -28.1392 4.3167 -6.59402
ltibia 25.3576
lfoot -8.97203 0.950087
ltoes -23.9269
127
root -6.66147 17.8674 0.176889 -121.542 84.8849 -138.248
lowerback 2.57971 1.71137 -1.60296
upperback 4.20901 2.34123 5.0769
thorax 2.62491 1.11536 6.16901
lowerneck -14.2584 -3.26605 0.979391
upperneck 41.3122 -1.63029 -3.25616
head 17.5778 -0.281642 -1.76456
rclavicle -1.35174e-014 -5.64548e-014
rhumerus -7.22519 3.15928 -99.2548
rradius 24.0581
rwrist -43.6101
rhand -14.2195 -6.63927
rfingers 7.12502
rthumb 11.9175 -36.2801
lclavicle -1.35174e-014 -5.64548e-014
lhumerus -14.3791 -53.3238 113.643
lradius 31.7361
lwrist 44.1
lhand -7.92414 72.3904
lfingers 7.12502
lthumb -162.018 78.4208
rfemur -25.9236 -1.49814 11.1217
rtibia 24.6227
rfoot -7.92055 -14.3748
rtoes -5.23156
lfemur -28.1195 4.34359 -6.602
ltibia 25.3777
lfoot -9.02671 0.917443
ltoes -23.7967
128
root -6.66113 17.8679 0.177143 -120.968 84.8922 -137.66
lowerback 2.58023 1.74274 -1.573
upperback 4.22012 2.38348 5.07434
thorax 2.6323 1.13729 6.14896
lowerneck -14.2772 -3.27534 1.00023
upperneck 41.3392 -1.64478 -3.26256
head 17.5972 -0.283665 -1.77476
rclavicle 1.74931e-014 6.36111e-014
rhumerus -7.95 5.51387 -99.1478
rradius 25.5904
rwrist -45.9639
rhand -14.9836 -7.11297
rfingers 7.12502
rthumb 11.1806 -36.7951
lclavicle 1.74931e-014 6.36111e-014
lhumerus -14.3706 -53.1327 113.665
lradius 31.5914
lwrist 43.7731
lhand -7.96669 72.1758
lfingers 7.12502
lthumb -162.059 78.6317
rfemur -25.9183 -1.54942 11.1685
rtibia 24.6054
rfoot -7.94303 -14.2877
rtoes -5.2748
lfemur -28.0965 4.36769 -6.56335
ltibia 25.401
lfoot -9.06241 0.904793
ltoes -23.8033
129
root -6.66196 17.8673 0.177483 -120.894 84.893 -137.579
lowerback 2.59307 1.74632 -1.56873
upperback 4.22593 2.3885 5.07299
thorax 2.63074 1.13999 6.1447
lowerneck -14.2693 -3.2723 0.976104
upperneck 41.3458 -1.63918 -3.23995
head 17.6001 -0.281591 -1.75891
rclavicle 3.97569e-015 3.18055e-014
rhumerus -7.04654 2.76161 -99.3898
rradius 23.8228
rwrist -43.1427
rhand -14.3475 -6.32031
rfingers 7.12502
rthumb 11.794 -35.9682
lclavicle 3.97569e-015 3.18055e-014
lhumerus -14.2726 -52.8835 113.613
lradius 31.4134
lwrist 43.3957
lhand -8.23671 71.4684
lfingers 7.12502
lthumb -162.319 79.3155
rfemur -25.9154 -1.60936 11.1978
rtibia 24.5884
rfoot -8.43455 -14.1796
rtoes 0.43038
lfemur -28.1054 4.36923 -6.5584
ltibia 25.4293
lfoot -9.07802 0.91543
ltoes -24.3319
130
root -6.66292 17.867 0.17499 -121.679 84.8288 -138.406
lowerback 2.56647 1.71382 -1.53195
upperback 4.20697 2.3456 5.09435
thorax 2.63153 1.11963 6.14725
lowerneck -14.2608 -3.27174 0.934338
upperneck 41.3485 -1.61405 -3.25799
head 17.6012 -0.279807 -1.75487
rclavicle 4.37326e-015 -3.26007e-014
rhumerus -6.60296 1.37332 -99.4856
rradius 22.9639
rwrist -41.7403
rhand -14.2076 -5.96126
rfingers 7.12502
rthumb 11.929 -35.6014
lclavicle 4.37326e-015 -3.26007e-014
lhumerus -14.1427 -52.5287 113.582
lradius 31.1563
lwrist 42.7495
lhand -8.70014 70.3866
lfingers 7.12502
lthumb -162.765 80.3577
rfemur -25.9369 -1.64684 11.192
rtibia 24.5894
rfoot -10.9503 -13.4809
rtoes 23.7386
lfemur -28.1976 4.31161 -6.56354
ltibia 25.4407
lfoot -9.07265 0.85748
ltoes -24.3015
131
root -6.6628 17.8673 0.176233 -121.539 84.7912 -138.298
lowerback 2.54045 1.71505 -1.55206
upperback 4.18527 2.34753 5.1389
thorax 2.62113 1.12026 6.20632
lowerneck -14.2457 -3.26649 0.941189
upperneck 41.3552 -1.58223 -3.31104
head 17.6014 -0.271936 -1.77435
rclavicle 4.41302e-014 7.31528e-014
rhumerus -6.58053 1.48811 -99.4512
rradius 22.8846
rwrist -41.7845
rhand -14.2933 -6.04838
rfingers 7.12502
rthumb 11.8463 -35.6933
lclavicle 4.41302e-014 7.31528e-014
lhumerus -14.0879 -52.2617 113.615
lradius 30.9482
lwrist 42.2653
lhand -8.97623 70.225
lfingers 7.12502
lthumb -163.031 80.4962
rfemur -25.9666 -1.52878 11.2013
rtibia 24.604
rfoot -10.5446 -13.7626
rtoes 20.2951
lfemur -28.2358 4.32885 -6.52454
ltibia 25.4345
lfoot -9.05383 0.800791
ltoes -23.8751
132
root -6.66258 17.8675 0.178929 -121.095 84.8508 -137.84
lowerback 2.56674 1.76887 -1.61101
upperback 4.17853 2.41894 5.12672
thorax 2.58917 1.15509 6.22496
lowerneck -14.2233 -3.27433 0.982756
upperneck 41.3451 -1.60861 -3.30769
head 17.5875 -0.275047 -1.7841
rclavicle -1.90833e-014 -4.53229e-014
rhumerus -6.69614 2.08413 -99.4091
rradius 23.0816
rwrist -42.2733
rhand -14.2821 -6.24137
rfingers 7.12502
rthumb 11.8571 -35.8857
lclavicle -1.90833e-014 -4.53229e-014
lhumerus -14.1181 -52.2688 113.662
lradius 30.8872
lwrist 42.1813
lhand -9.18358 70.6196
lfingers 7.12502
lthumb -163.23 80.0847
rfemur -25.9746 -1.48703 11.1844
rtibia 24.6181
rfoot -10.3629 -13.824
rtoes 18.9782
lfemur -28.1857 4.37664 -6.54434
ltibia 25.4227
lfoot -9.04286 0.821376
ltoes -23.7608
133
root -6.66326 17.8677 0.178679 -121.215 84.8956 -137.948
lowerback 2.60255 1.80477 -1.60651
upperback 4.17427 2.46682 5.09096
thorax 2.56033 1.18002 6.18215
lowerneck -14.1988 -3.29678 0.980693
upperneck 41.3358 -1.66106 -3.26046
head 17.5743 -0.289613 -1.77053
rclavicle 4.85035e-014 7.31528e-014
rhumerus -6.70821 2.20869 -99.435
rradius 23.1105
rwrist -42.3756
rhand -14.2596 -6.29984
rfingers 7.12502
rthumb 11.8787 -35.9429
lclavicle 4.85035e-014 7.31528e-014
lhumerus -14.1338 -52.321 113.688
lradius 30.8331
lwrist 42.1149
lhand -9.31854 70.53
lfingers 7.12502
lthumb -163.36 80.1633
rfemur -25.9782 -1.52838 11.1511
rtibia 24.6347
rfoot -10.5437 -13.7771
rtoes 20.2844
lfemur -28.1587 4.41178 -6.60309
ltibia 25.4066
lfoot -9.04482 0.836071
ltoes -23.6067
134
root -6.66368 17.8678 0.178681 -121.352 84.9132 -138.096
lowerback 2.59714 1.82321 -1.59149
upperback 4.16702 2.49117 5.06987
thorax 2.55426 1.19285 6.15079
lowerneck -14.1779 -3.30594 0.958212
upperneck 41.3437 -1.68219 -3.2157
head 17.5737 -0.294324 -1.74921
rclavicle -8.34896e-015 -1.27222e-014
rhumerus -6.61243 1.83201 -99.4917
rradius 22.9301
rwrist -42.0615
rhand -14.2016 -6.2053
rfingers 7.12502
rthumb 11.9347 -35.8451
lclavicle -8.34896e-015 -1.27222e-014
lhumerus -14.1279 -52.4329 113.709
lradius 30.7632
lwrist 42.0507
lhand -9.5094 70.6257
lfingers 7.12502
lthumb -163.544 80.0522
rfemur -25.9981 -1.50453 11.115
rtibia 24.6571
rfoot -10.7734 -13.7269
rtoes 21.8843
lfemur -28.171 4.45092 -6.6401
ltibia 25.39
lfoot -9.00463 0.815362
ltoes -23.4589
135
root -6.66421 17.8675 0.178414 -121.852 84.9182 -138.621
lowerback 2.57397 1.83639 -1.57713
upperback 4.15802 2.50796 5.03416
thorax 2.55779 1.20163 6.1051
lowerneck -14.1725 -3.29733 1.00228
upperneck 41.3374 -1.6847 -3.21083
head 17.5675 -0.287397 -1.75491
rclavicle -2.46493e-014 -2.78299e-014
rhumerus -6.48363 1.33528 -99.5572
rradius 22.7106
rwrist -41.6737
rhand -14.1774 -6.08815
rfingers 7.12502
rthumb 11.958 -35.7266
lclavicle -2.46493e-014 -2.78299e-014
lhumerus -14.1702 -52.7081 113.711
lradius 30.784
lwrist 42.1033
lhand -9.82694 70.8795
lfingers 7.12502
lthumb -163.85 79.7734
rfemur -26.0198 -1.50169 11.0624
rtibia 24.677
rfoot -10.7631 -13.726
rtoes 21.2676
lfemur -28.2168 4.46587 -6.68843
ltibia 25.3843
lfoot -9.02137 0.748639
ltoes -23.8773
